<svg width="20" height="20" viewBox="0 0 20 20" fill="none" xmlns="http://www.w3.org/2000/svg">
<g opacity="0.8" clip-path="url(#clip0)">
<path d="M2.10485 5.66705C2.87439 6.83065 3.55004 8.21348 3.65659 8.45124C3.68711 8.51981 3.73519 8.68154 3.78912 8.8794C4.1643 8.34924 4.62203 7.91105 5.16903 7.58943C5.94962 7.13076 6.84685 6.94173 7.81551 6.98718C7.58163 6.61588 7.36883 6.23353 7.26653 5.93599C7.00374 5.17296 6.05127 2.0223 5.49417 0.677148C4.93737 -0.668006 2.81652 0.289303 1.58406 0.98998C0.351605 1.69066 0.282505 2.55408 0.407865 2.7919C0.532926 3.02966 1.33531 4.50346 2.10485 5.66705Z" fill="#496F7C"/>
<path d="M6.83057 10.0024C8.46974 9.32674 8.8202 10.1463 8.8202 10.1463C9.33962 9.66459 8.9768 9.09513 8.9768 9.09513C8.9768 9.09513 9.10801 8.85116 8.89557 8.60074C8.76561 8.44809 8.34689 7.89391 7.98049 7.31179C7.01183 7.26634 6.1146 7.45536 5.33402 7.91404C4.78701 8.23565 4.32929 8.67354 3.9541 9.20401C4.08758 9.6929 4.25881 10.4092 4.30331 10.5339C4.36602 10.709 4.5284 10.9468 4.67885 10.978C4.82893 11.0091 4.91661 11.1531 4.91661 11.1531C5.11053 11.5471 5.71732 11.5721 5.71732 11.5721C5.71732 11.5721 5.1911 10.678 6.83057 10.0024Z" fill="#496F7C"/>
<path d="M19.0612 13.4772C18.559 13.0844 17.8869 12.8957 17.3512 12.5481C15.9664 11.6496 17.7602 10.8219 18.354 10.2866C19.3623 9.37762 19.6271 8.33037 19.2096 7.05861C19.0791 6.66067 18.7961 6.24099 18.9267 6.63857C19.6404 8.81371 17.3723 9.8532 16.2204 11.0694C15.7962 11.5173 15.8547 12.003 16.2955 12.45C17.1482 13.3147 19.7134 14.0446 18.1234 15.3888C17.0089 16.3308 15.2791 16.4153 14.0437 17.2109C13.8767 17.3184 13.8572 17.6075 14.0252 17.7251C15.2385 18.5736 16.9182 18.3693 18.1136 19.1398C16.0515 19.7602 13.8884 19.3555 11.7679 19.1612C11.7763 19.1011 11.7688 19.0501 11.7688 19.0501C11.4992 17.3983 11.4719 17.04 11.597 16.214C11.7221 15.3882 11.597 15.3128 11.597 15.3128C10.3207 13.561 8.77021 10.2525 8.77021 10.2525C8.56363 9.90844 7.74404 9.7626 6.73053 10.2148C5.67933 10.6841 5.75441 11.3283 5.75441 11.3283L7.53776 16.5856C7.60047 16.7544 7.88827 16.8357 7.88827 16.8357C9.55892 17.3174 10.9207 19.0056 11.1022 19.2684C11.2838 19.5312 11.4151 19.4311 11.4151 19.4311L9.46671 15.0676C9.31794 15.0335 9.16624 14.9042 9.07689 14.7125C8.94759 14.4348 8.99895 14.1372 9.19156 14.0475C9.38417 13.9579 9.64504 14.1102 9.77435 14.388C9.87182 14.5972 9.86626 14.8174 9.77566 14.9519L11.6331 19.1488C11.6195 19.1475 11.6058 19.1462 11.5922 19.1449C11.1777 19.1092 11.6127 19.6384 12.7773 19.7846C15.3727 20.1104 16.3878 20.0903 18.8891 19.5604C19.1458 19.5062 19.1503 19.1785 18.9817 19.0066C17.874 17.8761 16.2521 18.1172 14.9241 17.4996C16.6135 16.7883 21.2484 15.1878 19.0612 13.4772Z" fill="#496F7C"/>
</g>
<defs>
<clipPath id="clip0">
<rect width="20" height="20" fill="white"/>
</clipPath>
</defs>
</svg>
