<svg width="20" height="17" viewBox="0 0 20 17" fill="none" xmlns="http://www.w3.org/2000/svg">
<path d="M1.44 13.8C0.68 13.8 0 14.44 0 15.2C0 15.96 0.68 16.64 1.44 16.64C2.2 16.64 2.84 15.96 2.84 15.2C2.84 14.44 2.2 13.8 1.44 13.8Z" fill="#FBFBFB"/>
<path d="M1.44 6.92C0.68 6.92 0 7.56 0 8.32C0 9.08 0.68 9.72 1.44 9.72C2.2 9.72 2.84 9.08 2.84 8.32C2.84 7.56 2.2 6.92 1.44 6.92Z" fill="#FBFBFB"/>
<path d="M6.55999 2.72H18.68C19.4 2.72 20 2.16 20 1.44C20 0.720003 19.4 0.120003 18.68 0.120003H6.55999C5.83999 0.120003 5.23999 0.720003 5.23999 1.44C5.23999 2.16 5.83999 2.72 6.55999 2.72Z" fill="#FBFBFB"/>
<path d="M1.44 0C0.68 0 0 0.68 0 1.44C0 2.2 0.68 2.84 1.44 2.84C2.2 2.84 2.84 2.2 2.84 1.44C2.84 0.68 2.2 0 1.44 0Z" fill="#FBFBFB"/>
<path d="M18.68 7H6.55999C5.83999 7 5.23999 7.6 5.23999 8.32C5.23999 9.04 5.83999 9.64 6.55999 9.64H18.68C19.4 9.64 20 9.04 20 8.32C20 7.6 19.4 7 18.68 7Z" fill="#FBFBFB"/>
<path d="M18.68 13.88H6.55999C5.83999 13.88 5.23999 14.48 5.23999 15.2C5.23999 15.92 5.83999 16.52 6.55999 16.52H18.68C19.4 16.52 20 15.92 20 15.2C20 14.48 19.4 13.88 18.68 13.88Z" fill="#FBFBFB"/>
</svg>
