<svg width="113" height="124" viewBox="0 0 113 124" fill="none" xmlns="http://www.w3.org/2000/svg">
<path d="M61.377 47.7344V55.9863H52.8809V91.1914C52.8809 95.944 52.6367 99.4596 52.1484 101.738C51.6602 104.049 50.472 106.393 48.584 108.77C46.7285 111.178 43.929 113.197 40.1855 114.824C36.4421 116.452 32.2591 117.266 27.6367 117.266C20.6706 117.266 14.4531 115.166 8.98438 110.967L15.0391 104.229C19.1406 107.419 23.6003 109.014 28.418 109.014C31.0872 109.014 33.5612 108.493 35.8398 107.451C38.1185 106.442 39.8112 105.205 40.918 103.74C42.0573 102.275 42.7897 100.876 43.1152 99.541C43.4408 98.2389 43.6035 96.0254 43.6035 92.9004V88.6035C42.1387 90.459 39.8438 92.2168 36.7188 93.877C33.5938 95.5371 30.1758 96.3672 26.4648 96.3672C19.694 96.3672 14.1764 94.0234 9.91211 89.3359C5.64779 84.6484 3.51562 78.8867 3.51562 72.0508C3.51562 64.5638 5.85938 58.5254 10.5469 53.9355C15.2669 49.3132 20.7194 47.002 26.9043 47.002C33.1543 47.002 38.7207 49.4922 43.6035 54.4727V47.7344H61.377ZM13.3789 71.8555C13.3789 76.6406 14.7624 80.5469 17.5293 83.5742C20.3288 86.6016 23.8932 88.1152 28.2227 88.1152C32.4544 88.1152 36.1003 86.6016 39.1602 83.5742C42.2201 80.5143 43.75 76.5918 43.75 71.8066C43.75 66.9564 42.2201 63.0664 39.1602 60.1367C36.1003 57.1745 32.5521 55.6934 28.5156 55.6934C24.4792 55.6934 20.9473 57.1582 17.9199 60.0879C14.8926 62.985 13.3789 66.9076 13.3789 71.8555Z" fill="#437f88"/>
<line x1="44" y1="40.5" x2="61.5" y2="40.5" stroke="#437f88" stroke-width="5"/>
<path opacity="0.5" d="M64.5513 115.876V103.144H62.354V101.02H69.2998V103.144H67.2124V115.876H72.4126V110.102H74.8052V118H62.354V115.876H64.5513ZM77.6616 115.876V103.144H75.8184V101.02H82.0684V103.144H80.2251V115.876H82.0684V118H75.8184V115.876H77.6616ZM88.77 115.876V103.144H85.2666V107.478H83.167V101.02H96.9243V107.478H94.8247V103.144H91.3335V115.876H93.543V118H86.5972V115.876H88.77ZM100.086 115.876V103.144H97.8887V101.02H112V106.135H109.9V103.144H102.649V108.198H108.96V110.322H102.649V115.876H109.9V112.788H112V118H97.8887V115.876H100.086Z" fill="#437f88"/>
</svg>
