<svg width="20" height="20" viewBox="0 0 20 20" fill="none" xmlns="http://www.w3.org/2000/svg">
<g opacity="0.8">
<path d="M10.7692 16.9231H9.23078C8.76924 16.9231 8.46155 17.2308 8.46155 17.6923V19.2308C8.46155 19.6923 8.76924 20 9.23078 20H10.7692C11.2308 20 11.5385 19.6923 11.5385 19.2308V17.6923C11.5385 17.2308 11.2308 16.9231 10.7692 16.9231Z" fill="#FBFBFB"/>
<path d="M9.99998 0C6.15383 0 3.0769 3.07692 3.0769 6.92308C3.0769 7.30769 3.0769 7.69231 3.15383 8.07692C3.23075 8.53846 3.69229 8.76923 4.15383 8.69231L5.61537 8.23077C5.99998 8.15385 6.23075 7.76923 6.15383 7.38462C6.15383 7.23077 6.15383 7.07692 6.15383 6.92308C6.15383 4.76923 7.84613 3.07692 9.99998 3.07692C12.1538 3.07692 13.8461 4.76923 13.8461 6.92308C13.8461 8.23077 13.0769 8.84615 11.6923 10C10.3846 11.0769 8.84613 12.3077 8.46152 14.5385C8.3846 15 8.76921 15.3846 9.23075 15.3846H10.7692C11.1538 15.3846 11.4615 15.1538 11.5384 14.7692C11.7692 13.8462 12.4615 13.2308 13.6154 12.3846C15.0769 11.2308 16.9231 9.76923 16.9231 6.92308C16.9231 3.07692 13.8461 0 9.99998 0Z" fill="#FBFBFB"/>
</g>
</svg>
