<svg width="106" height="100" viewBox="0 0 106 100" fill="none" xmlns="http://www.w3.org/2000/svg">
<g clip-path="url(#clip0)">
<path d="M63.5766 5.61053L8.85205 17.3524L25.0756 92.964L79.8001 81.2221L63.5766 5.61053Z" fill="#E0E0E0"/>
<g opacity="0.5">
<path opacity="0.5" d="M62.9272 7.08734L10.0521 18.4324L25.7273 91.4882L78.6023 80.1432L62.9272 7.08734Z" fill="url(#paint0_linear)"/>
</g>
<path d="M62.3688 7.76954L10.84 18.8258L26.1688 90.2675L77.6976 79.2113L62.3688 7.76954Z" fill="#FAFAFA"/>
<path d="M48.7886 7.44357L23.2257 12.9284L24.5543 19.1207L50.1172 13.6358L48.7886 7.44357Z" fill="url(#paint1_linear)"/>
<path d="M34.7088 4.138C32.7352 4.56191 31.4865 6.54319 31.9207 8.56288C32.3548 10.5826 34.3054 11.8787 36.2751 11.4547C38.2449 11.0308 39.4974 9.04955 39.0632 7.02986C38.6291 5.01017 36.6824 3.71408 34.7088 4.138ZM35.9472 9.91404C35.5301 10.0135 35.0928 9.98654 34.6911 9.83657C34.2894 9.68659 33.9414 9.4204 33.6915 9.07193C33.4417 8.72344 33.3012 8.30846 33.288 7.87985C33.2749 7.45124 33.3897 7.02842 33.6177 6.66529C33.8458 6.30215 34.1768 6.01513 34.5686 5.84082C34.9603 5.6665 35.3952 5.61279 35.8176 5.68651C36.24 5.76024 36.6309 5.95807 36.9405 6.25479C37.2501 6.55151 37.4643 6.93368 37.5558 7.3526C37.6191 7.62644 37.6276 7.91008 37.5809 8.18723C37.5343 8.46438 37.4333 8.72958 37.2838 8.96759C37.1343 9.2056 36.9393 9.41174 36.71 9.57416C36.4806 9.73658 36.2214 9.85208 35.9472 9.91404Z" fill="url(#paint2_linear)"/>
<path d="M48.4624 7.2358L23.438 12.6051L24.708 18.5244L49.7325 13.155L48.4624 7.2358Z" fill="#201833"/>
<path d="M34.7091 4.13799C34.0174 4.28645 33.3852 4.63669 32.8926 5.14441C32.3999 5.65214 32.0689 6.29455 31.9413 6.99041C31.8138 7.68627 31.8954 8.40433 32.1759 9.05379C32.4565 9.70325 32.9233 10.2549 33.5173 10.6391C34.1114 11.0233 34.806 11.2227 35.5134 11.212C36.2208 11.2014 36.9091 10.9813 37.4914 10.5795C38.0736 10.1777 38.5237 9.61221 38.7846 8.95463C39.0455 8.29704 39.1056 7.57685 38.9572 6.88513C38.8587 6.4258 38.6706 5.99038 38.4038 5.60373C38.137 5.21707 37.7966 4.88677 37.4021 4.63167C37.0076 4.37657 36.5668 4.20167 36.1047 4.11696C35.6426 4.03226 35.1684 4.0394 34.7091 4.13799ZM35.8924 9.65789C35.4932 9.74356 35.0775 9.70891 34.6979 9.55832C34.3184 9.40773 33.992 9.14796 33.7601 8.81187C33.5282 8.47578 33.4011 8.07846 33.395 7.67017C33.3889 7.26187 33.5041 6.86093 33.7258 6.51806C33.9476 6.17519 34.2661 5.90579 34.6409 5.74392C35.0158 5.58206 35.4303 5.535 35.8319 5.6087C36.2336 5.6824 36.6043 5.87355 36.8973 6.15798C37.1903 6.4424 37.3924 6.80732 37.478 7.20659C37.5927 7.74191 37.4901 8.30088 37.1928 8.76057C36.8955 9.22027 36.4277 9.54304 35.8924 9.65789Z" fill="#201833"/>
<path d="M88.9984 14.9729H33.0283V92.3054H88.9984V14.9729Z" fill="#E0E0E0"/>
<g opacity="0.5">
<path opacity="0.5" d="M88.0534 16.2805H33.975V90.9991H88.0534V16.2805Z" fill="url(#paint3_linear)"/>
</g>
<path d="M87.3646 16.8313H34.663V89.899H87.3646V16.8313Z" fill="white"/>
<path d="M74.1549 13.6627H48.0103V19.9959H74.1549V13.6627Z" fill="url(#paint4_linear)"/>
<path d="M61.0829 7.48068C59.0645 7.48068 57.4277 9.15587 57.4277 11.223C57.4277 13.29 59.0645 14.9652 61.0829 14.9652C63.1013 14.9652 64.7381 13.29 64.7381 11.223C64.7381 9.15587 63.1013 7.48068 61.0829 7.48068ZM61.0829 13.3823C60.6538 13.3924 60.2314 13.2745 59.8696 13.0435C59.5079 12.8125 59.2232 12.479 59.0518 12.0854C58.8805 11.6918 58.8304 11.2562 58.9078 10.834C58.9853 10.4118 59.1868 10.0223 59.4866 9.71515C59.7865 9.40802 60.171 9.19722 60.5912 9.10967C61.0114 9.02211 61.4482 9.06177 61.8457 9.22359C62.2433 9.38541 62.5836 9.66204 62.8232 10.0182C63.0628 10.3743 63.1909 10.7937 63.191 11.223C63.1951 11.7871 62.9756 12.3299 62.5806 12.7326C62.1855 13.1354 61.647 13.3653 61.0829 13.372V13.3823Z" fill="url(#paint5_linear)"/>
<path d="M73.8796 13.3912H48.2856V19.4452H73.8796V13.3912Z" fill="#201833"/>
<path d="M61.0826 7.48068C60.3751 7.48068 59.6835 7.69047 59.0953 8.08352C58.507 8.47658 58.0485 9.03523 57.7778 9.68885C57.507 10.3425 57.4362 11.0617 57.5742 11.7556C57.7123 12.4495 58.0529 13.0868 58.5532 13.5871C59.0535 14.0873 59.6908 14.428 60.3847 14.5661C61.0786 14.7041 61.7978 14.6332 62.4515 14.3625C63.1051 14.0918 63.6638 13.6333 64.0568 13.045C64.4499 12.4568 64.6597 11.7652 64.6597 11.0577C64.6597 10.109 64.2828 9.1992 63.612 8.52838C62.9411 7.85755 62.0313 7.48068 61.0826 7.48068ZM61.0826 13.1223C60.6746 13.1217 60.2759 13.0004 59.9368 12.7734C59.5978 12.5465 59.3335 12.2242 59.1775 11.8472C59.0215 11.4702 58.9807 11.0554 59.0602 10.6553C59.1398 10.2551 59.3361 9.88748 59.6244 9.5988C59.9127 9.31013 60.2801 9.11335 60.6802 9.03332C61.0803 8.95329 61.4951 8.99359 61.8723 9.14914C62.2494 9.30469 62.5721 9.56851 62.7994 9.90729C63.0268 10.2461 63.1487 10.6446 63.1497 11.0526C63.1495 11.3238 63.0959 11.5924 62.9919 11.8429C62.8879 12.0934 62.7356 12.3209 62.5436 12.5125C62.3517 12.7041 62.1238 12.856 61.8731 12.9596C61.6224 13.0631 61.3538 13.1162 61.0826 13.1158V13.1223Z" fill="#201833"/>
<g opacity="0.5">
<path opacity="0.5" d="M2.43724 94.3956H1.95569V97.1273H2.43724V94.3956Z" fill="#47E6B1"/>
<path opacity="0.5" d="M3.56335 96.0028V95.5213H0.83158V96.0028H3.56335Z" fill="#47E6B1"/>
</g>
<g opacity="0.5">
<path opacity="0.5" d="M58.3048 0H57.8232V2.73178H58.3048V0Z" fill="#47E6B1"/>
<path opacity="0.5" d="M59.4303 1.60601V1.12447L56.6985 1.12447V1.60601L59.4303 1.60601Z" fill="#47E6B1"/>
</g>
<path opacity="0.5" d="M98.7538 98.9434C98.6209 98.8856 98.514 98.7809 98.4533 98.6494C98.3926 98.5179 98.3824 98.3686 98.4246 98.23C98.4314 98.2088 98.4357 98.1869 98.4374 98.1647C98.4412 98.1013 98.4245 98.0383 98.3898 97.9851C98.355 97.9319 98.3041 97.8913 98.2444 97.8693C98.1848 97.8474 98.1197 97.8452 98.0587 97.8631C97.9978 97.881 97.9442 97.918 97.9059 97.9688C97.8926 97.9866 97.8814 98.006 97.8726 98.0264C97.8148 98.1592 97.7102 98.2662 97.5786 98.3268C97.4471 98.3875 97.2978 98.3977 97.1592 98.3555C97.138 98.3487 97.1161 98.3444 97.0939 98.3427C97.0305 98.3389 96.9675 98.3556 96.9143 98.3904C96.8611 98.4251 96.8205 98.4761 96.7985 98.5357C96.7766 98.5953 96.7744 98.6604 96.7923 98.7214C96.8102 98.7824 96.8472 98.836 96.898 98.8742C96.9158 98.8875 96.9352 98.8987 96.9556 98.9075C97.0884 98.9653 97.1954 99.07 97.256 99.2015C97.3167 99.333 97.327 99.4823 97.2848 99.6209C97.2779 99.6421 97.2736 99.664 97.2719 99.6862C97.2681 99.7496 97.2848 99.8126 97.3196 99.8658C97.3543 99.919 97.4053 99.9596 97.4649 99.9816C97.5245 100.004 97.5897 100.006 97.6506 99.9878C97.7116 99.9699 97.7652 99.9329 97.8035 99.8821C97.8168 99.8643 97.8279 99.845 97.8368 99.8245C97.8946 99.6917 97.9992 99.5848 98.1307 99.5241C98.2623 99.4634 98.4115 99.4532 98.5501 99.4954C98.5713 99.5022 98.5932 99.5065 98.6154 99.5082C98.6789 99.512 98.7418 99.4953 98.795 99.4605C98.8482 99.4258 98.8888 99.3748 98.9108 99.3152C98.9328 99.2556 98.935 99.1905 98.9171 99.1295C98.8992 99.0685 98.8621 99.0149 98.8114 98.9767C98.7936 98.9634 98.7742 98.9522 98.7538 98.9434Z" fill="#4D8AF0"/>
<path opacity="0.5" d="M17.5037 72.6809C17.3709 72.6231 17.264 72.5185 17.2033 72.3869C17.1426 72.2554 17.1324 72.1062 17.1746 71.9676C17.1814 71.9464 17.1857 71.9245 17.1874 71.9023C17.1912 71.8388 17.1745 71.7758 17.1397 71.7227C17.105 71.6695 17.054 71.6289 16.9944 71.6069C16.9348 71.5849 16.8697 71.5827 16.8087 71.6006C16.7477 71.6185 16.6942 71.6556 16.6559 71.7063C16.6426 71.7241 16.6314 71.7435 16.6226 71.7639C16.5648 71.8968 16.4601 72.0037 16.3286 72.0644C16.1971 72.1251 16.0478 72.1353 15.9092 72.0931C15.888 72.0863 15.8661 72.082 15.8439 72.0803C15.7805 72.0765 15.7175 72.0932 15.6643 72.1279C15.6111 72.1627 15.5705 72.2136 15.5485 72.2732C15.5266 72.3329 15.5244 72.398 15.5423 72.459C15.5602 72.5199 15.5972 72.5735 15.648 72.6118C15.6658 72.6251 15.6851 72.6363 15.7056 72.6451C15.8384 72.7029 15.9453 72.8075 16.006 72.9391C16.0667 73.0706 16.0769 73.2199 16.0347 73.3585C16.0279 73.3796 16.0236 73.4016 16.0219 73.4238C16.0181 73.4872 16.0348 73.5502 16.0696 73.6034C16.1043 73.6566 16.1553 73.6972 16.2149 73.7191C16.2745 73.7411 16.3396 73.7433 16.4006 73.7254C16.4616 73.7075 16.5152 73.6705 16.5534 73.6197C16.5667 73.6019 16.5779 73.5825 16.5867 73.5621C16.6445 73.4293 16.7492 73.3223 16.8807 73.2616C17.0123 73.2009 17.1615 73.1907 17.3001 73.2329C17.3213 73.2398 17.3432 73.2441 17.3654 73.2457C17.4288 73.2496 17.4918 73.2329 17.545 73.1981C17.5982 73.1634 17.6388 73.1124 17.6608 73.0528C17.6828 72.9931 17.685 72.928 17.6671 72.8671C17.6491 72.8061 17.6121 72.7525 17.5614 72.7142C17.5435 72.7009 17.5242 72.6898 17.5037 72.6809Z" fill="#FDD835"/>
<path opacity="0.5" d="M85.1781 8.73193C85.0452 8.67411 84.9383 8.56948 84.8776 8.43794C84.8169 8.30641 84.8067 8.15715 84.8489 8.01857C84.8557 7.99737 84.86 7.97545 84.8617 7.95325C84.8656 7.88982 84.8488 7.82685 84.8141 7.77365C84.7793 7.72045 84.7284 7.67986 84.6688 7.65787C84.6091 7.63589 84.544 7.63369 84.483 7.6516C84.4221 7.66951 84.3685 7.70657 84.3302 7.7573C84.3169 7.77514 84.3057 7.79448 84.2969 7.81493C84.2391 7.94776 84.1345 8.05469 84.0029 8.11538C83.8714 8.17607 83.7221 8.18629 83.5835 8.14408C83.5624 8.13727 83.5404 8.13297 83.5182 8.13127C83.4548 8.12745 83.3918 8.14415 83.3386 8.17891C83.2854 8.21366 83.2448 8.26462 83.2229 8.32425C83.2009 8.38387 83.1987 8.44898 83.2166 8.50995C83.2345 8.57092 83.2715 8.62451 83.3223 8.66278C83.3401 8.67609 83.3595 8.68727 83.3799 8.69607C83.5127 8.75389 83.6197 8.85853 83.6804 8.99006C83.7411 9.1216 83.7513 9.27086 83.7091 9.40944C83.7023 9.43064 83.698 9.45256 83.6963 9.47476C83.6924 9.53819 83.7091 9.60116 83.7439 9.65436C83.7786 9.70756 83.8296 9.74815 83.8892 9.77013C83.9489 9.79211 84.014 9.79432 84.0749 9.77641C84.1359 9.7585 84.1895 9.72144 84.2278 9.67071C84.2411 9.65287 84.2523 9.63352 84.2611 9.61308C84.3189 9.48025 84.4235 9.37332 84.5551 9.31263C84.6866 9.25194 84.8358 9.24172 84.9744 9.28393C84.9956 9.29074 85.0175 9.29504 85.0397 9.29674C85.1032 9.30056 85.1662 9.28385 85.2194 9.2491C85.2725 9.21434 85.3131 9.16338 85.3351 9.10376C85.3571 9.04414 85.3593 8.97902 85.3414 8.91805C85.3235 8.85708 85.2864 8.8035 85.2357 8.76523C85.2179 8.75192 85.1985 8.74074 85.1781 8.73193Z" fill="#FDD835"/>
<path opacity="0.5" d="M104.077 41.2392C104.609 41.2392 105.041 40.8075 105.041 40.2748C105.041 39.7422 104.609 39.3105 104.077 39.3105C103.544 39.3105 103.112 39.7422 103.112 40.2748C103.112 40.8075 103.544 41.2392 104.077 41.2392Z" fill="#F55F44"/>
<path opacity="0.5" d="M29.5502 96.5894C30.0828 96.5894 30.5146 96.1577 30.5146 95.6251C30.5146 95.0924 30.0828 94.6607 29.5502 94.6607C29.0176 94.6607 28.5858 95.0924 28.5858 95.6251C28.5858 96.1577 29.0176 96.5894 29.5502 96.5894Z" fill="#F55F44"/>
<path opacity="0.5" d="M94.1729 62.0842C94.7055 62.0842 95.1373 61.6525 95.1373 61.1199C95.1373 60.5872 94.7055 60.1555 94.1729 60.1555C93.6403 60.1555 93.2085 60.5872 93.2085 61.1199C93.2085 61.6525 93.6403 62.0842 94.1729 62.0842Z" fill="#F55F44"/>
<path opacity="0.5" d="M11.1601 13.3041C11.6927 13.3041 12.1244 12.8723 12.1244 12.3397C12.1244 11.8071 11.6927 11.3754 11.1601 11.3754C10.6274 11.3754 10.1957 11.8071 10.1957 12.3397C10.1957 12.8723 10.6274 13.3041 11.1601 13.3041Z" fill="#4D8AF0"/>
<path opacity="0.5" d="M0.964382 39.6114C1.497 39.6114 1.92876 39.1797 1.92876 38.647C1.92876 38.1144 1.497 37.6827 0.964382 37.6827C0.431769 37.6827 0 38.1144 0 38.647C0 39.1797 0.431769 39.6114 0.964382 39.6114Z" fill="#47E6B1"/>
</g>
<defs>
<linearGradient id="paint0_linear" x1="52.1642" y1="85.8158" x2="36.489" y2="12.76" gradientUnits="userSpaceOnUse">
<stop stop-color="#808080" stop-opacity="0.25"/>
<stop offset="0.54" stop-color="#808080" stop-opacity="0.12"/>
<stop offset="1" stop-color="#808080" stop-opacity="0.1"/>
</linearGradient>
<linearGradient id="paint1_linear" x1="14063.1" y1="-1831.29" x2="13997.4" y2="-2137.5" gradientUnits="userSpaceOnUse">
<stop stop-color="#808080" stop-opacity="0.25"/>
<stop offset="0.54" stop-color="#808080" stop-opacity="0.12"/>
<stop offset="1" stop-color="#808080" stop-opacity="0.1"/>
</linearGradient>
<linearGradient id="paint2_linear" x1="4106.47" y1="208.881" x2="4014.81" y2="-218.302" gradientUnits="userSpaceOnUse">
<stop stop-color="#808080" stop-opacity="0.25"/>
<stop offset="0.54" stop-color="#808080" stop-opacity="0.12"/>
<stop offset="1" stop-color="#808080" stop-opacity="0.1"/>
</linearGradient>
<linearGradient id="paint3_linear" x1="25796.9" y1="53106.1" x2="25796.9" y2="9514.5" gradientUnits="userSpaceOnUse">
<stop stop-color="#808080" stop-opacity="0.25"/>
<stop offset="0.54" stop-color="#808080" stop-opacity="0.12"/>
<stop offset="1" stop-color="#808080" stop-opacity="0.1"/>
</linearGradient>
<linearGradient id="paint4_linear" x1="12517.4" y1="1002.46" x2="12517.4" y2="689.288" gradientUnits="userSpaceOnUse">
<stop stop-color="#808080" stop-opacity="0.25"/>
<stop offset="0.54" stop-color="#808080" stop-opacity="0.12"/>
<stop offset="1" stop-color="#808080" stop-opacity="0.1"/>
</linearGradient>
<linearGradient id="paint5_linear" x1="4932.42" y1="1327.68" x2="4932.42" y2="890.283" gradientUnits="userSpaceOnUse">
<stop stop-color="#808080" stop-opacity="0.25"/>
<stop offset="0.54" stop-color="#808080" stop-opacity="0.12"/>
<stop offset="1" stop-color="#808080" stop-opacity="0.1"/>
</linearGradient>
<clipPath id="clip0">
<rect width="105.04" height="100" fill="white"/>
</clipPath>
</defs>
</svg>
